<?xml version="1.0" encoding="UTF-8" standalone="no"?>
<!DOCTYPE svg PUBLIC "-//W3C//DTD SVG 1.1//EN"
 "http://www.w3.org/Graphics/SVG/1.1/DTD/svg11.dtd">
<!-- Generated by graphviz version 2.43.0 (0)
 -->
<!-- Title: G Pages: 1 -->
<svg width="371pt" height="519pt"
 viewBox="0.00 0.00 370.86 519.26" xmlns="http://www.w3.org/2000/svg" xmlns:xlink="http://www.w3.org/1999/xlink">
<g id="graph0" class="graph" transform="scale(1 1) rotate(0) translate(4 515.26)">
<title>G</title><style>.edge>path:hover{stroke-width:8}</style>
<polygon fill="white" stroke="transparent" points="-4,4 -4,-515.26 366.86,-515.26 366.86,4 -4,4"/>
<!-- quasimoto___main__ -->
<g id="node1" class="node">
<title>quasimoto___main__</title><style>.edge>path:hover{stroke-width:8}</style>
<ellipse fill="#ac4949" stroke="black" cx="103.76" cy="-21.21" rx="50.41" ry="21.43"/>
<text text-anchor="middle" x="103.76" y="-24.21" font-family="Helvetica,sans-Serif" font-size="10.00" fill="#ffffff">quasimoto.</text>
<text text-anchor="middle" x="103.76" y="-13.21" font-family="Helvetica,sans-Serif" font-size="10.00" fill="#ffffff">__main__</text>
</g>
<!-- quasimoto_app -->
<g id="node2" class="node">
<title>quasimoto_app</title><style>.edge>path:hover{stroke-width:8}</style>
<ellipse fill="#a13535" stroke="black" cx="103.76" cy="-174.85" rx="52.28" ry="18"/>
<text text-anchor="middle" x="103.76" y="-172.35" font-family="Helvetica,sans-Serif" font-size="10.00" fill="#ffffff">quasimoto.app</text>
</g>
<!-- quasimoto_entry -->
<g id="node5" class="node">
<title>quasimoto_entry</title><style>.edge>path:hover{stroke-width:8}</style>
<ellipse fill="#a83838" stroke="black" cx="103.76" cy="-99.64" rx="50.41" ry="21.43"/>
<text text-anchor="middle" x="103.76" y="-102.64" font-family="Helvetica,sans-Serif" font-size="10.00" fill="#ffffff">quasimoto.</text>
<text text-anchor="middle" x="103.76" y="-91.64" font-family="Helvetica,sans-Serif" font-size="10.00" fill="#ffffff">entry</text>
</g>
<!-- quasimoto_app&#45;&gt;quasimoto_entry -->
<g id="edge1" class="edge">
<title>quasimoto_app&#45;&gt;quasimoto_entry</title><style>.edge>path:hover{stroke-width:8}</style>
<path fill="none" stroke="black" d="M103.76,-156.5C103.76,-148.93 103.76,-139.81 103.76,-131.16"/>
<polygon fill="#a13535" stroke="black" points="107.26,-130.98 103.76,-120.98 100.26,-130.98 107.26,-130.98"/>
</g>
<!-- quasimoto_commands -->
<g id="node3" class="node">
<title>quasimoto_commands</title><style>.edge>path:hover{stroke-width:8}</style>
<ellipse fill="#c24747" stroke="black" cx="68.76" cy="-250.07" rx="50.41" ry="21.43"/>
<text text-anchor="middle" x="68.76" y="-253.07" font-family="Helvetica,sans-Serif" font-size="10.00" fill="#ffffff">quasimoto.</text>
<text text-anchor="middle" x="68.76" y="-242.07" font-family="Helvetica,sans-Serif" font-size="10.00" fill="#ffffff">commands</text>
</g>
<!-- quasimoto_commands&#45;&gt;quasimoto_app -->
<g id="edge2" class="edge">
<title>quasimoto_commands&#45;&gt;quasimoto_app</title><style>.edge>path:hover{stroke-width:8}</style>
<path fill="none" stroke="black" d="M78.33,-229.06C82.31,-220.73 86.99,-210.94 91.24,-202.04"/>
<polygon fill="#c24747" stroke="black" points="94.48,-203.39 95.64,-192.86 88.16,-200.37 94.48,-203.39"/>
</g>
<!-- quasimoto_commands_all -->
<g id="node4" class="node">
<title>quasimoto_commands_all</title><style>.edge>path:hover{stroke-width:8}</style>
<ellipse fill="#b83d3d" stroke="black" cx="226.76" cy="-336.27" rx="52.15" ry="28.98"/>
<text text-anchor="middle" x="226.76" y="-344.77" font-family="Helvetica,sans-Serif" font-size="10.00" fill="#ffffff">quasimoto.</text>
<text text-anchor="middle" x="226.76" y="-333.77" font-family="Helvetica,sans-Serif" font-size="10.00" fill="#ffffff">commands.</text>
<text text-anchor="middle" x="226.76" y="-322.77" font-family="Helvetica,sans-Serif" font-size="10.00" fill="#ffffff">all</text>
</g>
<!-- quasimoto_commands_all&#45;&gt;quasimoto_app -->
<g id="edge3" class="edge">
<title>quasimoto_commands_all&#45;&gt;quasimoto_app</title><style>.edge>path:hover{stroke-width:8}</style>
<path fill="none" stroke="black" d="M200.48,-310.96C183.93,-294.89 162.76,-272.84 146.76,-251.07"/>
</g>
<!-- quasimoto_entry&#45;&gt;quasimoto___main__ -->
<g id="edge4" class="edge">
<title>quasimoto_entry&#45;&gt;quasimoto___main__</title><style>.edge>path:hover{stroke-width:8}</style>
<path fill="none" stroke="black" d="M103.76,-78.16C103.76,-70.3 103.76,-61.16 103.76,-52.57"/>
<polygon fill="#a83838" stroke="black" points="107.26,-52.49 103.76,-42.49 100.26,-52.49 107.26,-52.49"/>
</g>
<!-- vcorelib -->
<g id="node6" class="node">
<title>vcorelib</title><style>.edge>path:hover{stroke-width:8}</style>
<ellipse fill="#2fdbdb" stroke="black" cx="217.76" cy="-493.26" rx="32.93" ry="18"/>
<text text-anchor="middle" x="217.76" y="-490.76" font-family="Helvetica,sans-Serif" font-size="10.00" fill="#000000">vcorelib</text>
</g>
<!-- vcorelib&#45;&gt;quasimoto_app -->
<g id="edge5" class="edge">
<title>vcorelib&#45;&gt;quasimoto_app</title><style>.edge>path:hover{stroke-width:8}</style>
<path fill="none" stroke="black" d="M146.76,-335.27C119.65,-309.47 168.92,-281.22 146.76,-251.07"/>
<path fill="none" stroke="black" d="M146.76,-249.07C135.74,-234.06 125.12,-216.04 117.2,-201.63"/>
<polygon fill="#2fdbdb" stroke="black" points="120.23,-199.88 112.4,-192.75 114.07,-203.21 120.23,-199.88"/>
</g>
<!-- vcorelib&#45;&gt;quasimoto_commands_all -->
<g id="edge6" class="edge">
<title>vcorelib&#45;&gt;quasimoto_commands_all</title><style>.edge>path:hover{stroke-width:8}</style>
<path fill="none" stroke="black" d="M226.76,-401.26C224.48,-393.13 223.55,-384.18 223.37,-375.61"/>
<polygon fill="#2fdbdb" stroke="black" points="226.88,-375.48 223.49,-365.44 219.88,-375.4 226.88,-375.48"/>
</g>
<!-- vcorelib&#45;&gt;quasimoto_entry -->
<g id="edge7" class="edge">
<title>vcorelib&#45;&gt;quasimoto_entry</title><style>.edge>path:hover{stroke-width:8}</style>
<path fill="none" stroke="black" d="M223.12,-475.35C228.08,-457.02 233.74,-427.05 226.76,-402.26"/>
<path fill="none" stroke="black" d="M226.76,-401.26C217.43,-371.2 188.72,-386.81 165.76,-365.26 154.8,-354.97 157.66,-347.64 146.76,-337.27"/>
<path fill="none" stroke="black" d="M146.76,-335.27C98.08,-288.94 45.85,-327.97 9.76,-271.28 -22.29,-220.94 34.5,-158.93 72.89,-125.25"/>
<polygon fill="#2fdbdb" stroke="black" points="75.44,-127.67 80.76,-118.51 70.89,-122.35 75.44,-127.67"/>
</g>
<!-- vcorelib_args -->
<g id="node7" class="node">
<title>vcorelib_args</title><style>.edge>path:hover{stroke-width:8}</style>
<ellipse fill="#47c2c2" stroke="black" cx="315.76" cy="-493.26" rx="47.19" ry="18"/>
<text text-anchor="middle" x="315.76" y="-490.76" font-family="Helvetica,sans-Serif" font-size="10.00" fill="#000000">vcorelib.args</text>
</g>
<!-- vcorelib_args&#45;&gt;quasimoto_app -->
<g id="edge8" class="edge">
<title>vcorelib_args&#45;&gt;quasimoto_app</title><style>.edge>path:hover{stroke-width:8}</style>
<path fill="none" stroke="black" d="M306.76,-401.26C291.97,-361.3 316.55,-338.7 287.76,-307.28 249.57,-265.59 213.91,-300.91 165.76,-271.28 155.26,-264.82 154.06,-261 146.76,-251.07"/>
</g>
<!-- vcorelib_args&#45;&gt;quasimoto_commands_all -->
<g id="edge9" class="edge">
<title>vcorelib_args&#45;&gt;quasimoto_commands_all</title><style>.edge>path:hover{stroke-width:8}</style>
<path fill="none" stroke="black" d="M315.81,-475.01C315.45,-456.65 313.69,-426.9 306.76,-402.26"/>
<path fill="none" stroke="black" d="M306.76,-401.26C300.78,-385.1 287.87,-372.01 274.13,-361.97"/>
<polygon fill="#47c2c2" stroke="black" points="275.76,-358.85 265.52,-356.12 271.82,-364.64 275.76,-358.85"/>
</g>
<!-- vcorelib_logging -->
<g id="node8" class="node">
<title>vcorelib_logging</title><style>.edge>path:hover{stroke-width:8}</style>
<ellipse fill="#3db8b8" stroke="black" cx="216.76" cy="-250.07" rx="41.94" ry="21.43"/>
<text text-anchor="middle" x="216.76" y="-253.07" font-family="Helvetica,sans-Serif" font-size="10.00" fill="#000000">vcorelib.</text>
<text text-anchor="middle" x="216.76" y="-242.07" font-family="Helvetica,sans-Serif" font-size="10.00" fill="#000000">logging</text>
</g>
<!-- vcorelib_logging&#45;&gt;quasimoto_entry -->
<g id="edge10" class="edge">
<title>vcorelib_logging&#45;&gt;quasimoto_entry</title><style>.edge>path:hover{stroke-width:8}</style>
<path fill="none" stroke="black" d="M207.84,-229.25C198.57,-209.79 182.91,-179.76 164.76,-156.85 155.86,-145.61 144.65,-134.6 134.27,-125.35"/>
<polygon fill="#3db8b8" stroke="black" points="136.4,-122.57 126.56,-118.65 131.81,-127.85 136.4,-122.57"/>
</g>
</g>
</svg>
