<?xml version="1.0" encoding="UTF-8" standalone="no"?>
<!DOCTYPE svg PUBLIC "-//W3C//DTD SVG 1.1//EN"
 "http://www.w3.org/Graphics/SVG/1.1/DTD/svg11.dtd">
<!-- Generated by graphviz version 2.43.0 (0)
 -->
<!-- Title: G Pages: 1 -->
<svg width="1338pt" height="1271pt"
 viewBox="0.00 0.00 1337.65 1271.12" xmlns="http://www.w3.org/2000/svg" xmlns:xlink="http://www.w3.org/1999/xlink">
<g id="graph0" class="graph" transform="scale(1 1) rotate(0) translate(4 1267.12)">
<title>G</title><style>.edge>path:hover{stroke-width:8}</style>
<polygon fill="white" stroke="transparent" points="-4,4 -4,-1267.12 1333.65,-1267.12 1333.65,4 -4,4"/>
<!-- quasimoto___main__ -->
<g id="node1" class="node">
<title>quasimoto___main__</title><style>.edge>path:hover{stroke-width:8}</style>
<ellipse fill="#ac4949" stroke="black" cx="627.2" cy="-21.21" rx="50.41" ry="21.43"/>
<text text-anchor="middle" x="627.2" y="-24.21" font-family="Helvetica,sans-Serif" font-size="10.00" fill="#ffffff">quasimoto.</text>
<text text-anchor="middle" x="627.2" y="-13.21" font-family="Helvetica,sans-Serif" font-size="10.00" fill="#ffffff">__main__</text>
</g>
<!-- quasimoto_app -->
<g id="node2" class="node">
<title>quasimoto_app</title><style>.edge>path:hover{stroke-width:8}</style>
<ellipse fill="#a13535" stroke="black" cx="128.2" cy="-174.85" rx="52.28" ry="18"/>
<text text-anchor="middle" x="128.2" y="-172.35" font-family="Helvetica,sans-Serif" font-size="10.00" fill="#ffffff">quasimoto.app</text>
</g>
<!-- quasimoto_entry -->
<g id="node6" class="node">
<title>quasimoto_entry</title><style>.edge>path:hover{stroke-width:8}</style>
<ellipse fill="#a83838" stroke="black" cx="627.2" cy="-99.64" rx="50.41" ry="21.43"/>
<text text-anchor="middle" x="627.2" y="-102.64" font-family="Helvetica,sans-Serif" font-size="10.00" fill="#ffffff">quasimoto.</text>
<text text-anchor="middle" x="627.2" y="-91.64" font-family="Helvetica,sans-Serif" font-size="10.00" fill="#ffffff">entry</text>
</g>
<!-- quasimoto_app&#45;&gt;quasimoto_entry -->
<g id="edge1" class="edge">
<title>quasimoto_app&#45;&gt;quasimoto_entry</title><style>.edge>path:hover{stroke-width:8}</style>
<path fill="none" stroke="black" d="M175.6,-166.9C267.82,-153.37 471.05,-123.55 570.35,-108.98"/>
<polygon fill="#a13535" stroke="black" points="571.1,-112.41 580.49,-107.49 570.09,-105.48 571.1,-112.41"/>
</g>
<!-- quasimoto_commands -->
<g id="node3" class="node">
<title>quasimoto_commands</title><style>.edge>path:hover{stroke-width:8}</style>
<ellipse fill="#ce3b3b" stroke="black" cx="50.2" cy="-250.07" rx="50.41" ry="21.43"/>
<text text-anchor="middle" x="50.2" y="-253.07" font-family="Helvetica,sans-Serif" font-size="10.00" fill="#ffffff">quasimoto.</text>
<text text-anchor="middle" x="50.2" y="-242.07" font-family="Helvetica,sans-Serif" font-size="10.00" fill="#ffffff">commands</text>
</g>
<!-- quasimoto_commands&#45;&gt;quasimoto_app -->
<g id="edge2" class="edge">
<title>quasimoto_commands&#45;&gt;quasimoto_app</title><style>.edge>path:hover{stroke-width:8}</style>
<path fill="none" stroke="black" d="M70.29,-230.21C80.46,-220.67 92.9,-208.99 103.63,-198.92"/>
<polygon fill="#ce3b3b" stroke="black" points="106.2,-201.31 111.09,-191.91 101.41,-196.21 106.2,-201.31"/>
</g>
<!-- quasimoto_commands_all -->
<g id="node4" class="node">
<title>quasimoto_commands_all</title><style>.edge>path:hover{stroke-width:8}</style>
<ellipse fill="#a13535" stroke="black" cx="208.2" cy="-336.27" rx="52.15" ry="28.98"/>
<text text-anchor="middle" x="208.2" y="-344.77" font-family="Helvetica,sans-Serif" font-size="10.00" fill="#ffffff">quasimoto.</text>
<text text-anchor="middle" x="208.2" y="-333.77" font-family="Helvetica,sans-Serif" font-size="10.00" fill="#ffffff">commands.</text>
<text text-anchor="middle" x="208.2" y="-322.77" font-family="Helvetica,sans-Serif" font-size="10.00" fill="#ffffff">all</text>
</g>
<!-- quasimoto_commands_all&#45;&gt;quasimoto_app -->
<g id="edge3" class="edge">
<title>quasimoto_commands_all&#45;&gt;quasimoto_app</title><style>.edge>path:hover{stroke-width:8}</style>
<path fill="none" stroke="black" d="M174.55,-313.77C155.35,-298.96 133.98,-277.25 128.2,-251.07"/>
</g>
<!-- quasimoto_commands_gen -->
<g id="node5" class="node">
<title>quasimoto_commands_gen</title><style>.edge>path:hover{stroke-width:8}</style>
<ellipse fill="#a13535" stroke="black" cx="326.2" cy="-430.25" rx="52.15" ry="28.98"/>
<text text-anchor="middle" x="326.2" y="-438.75" font-family="Helvetica,sans-Serif" font-size="10.00" fill="#ffffff">quasimoto.</text>
<text text-anchor="middle" x="326.2" y="-427.75" font-family="Helvetica,sans-Serif" font-size="10.00" fill="#ffffff">commands.</text>
<text text-anchor="middle" x="326.2" y="-416.75" font-family="Helvetica,sans-Serif" font-size="10.00" fill="#ffffff">gen</text>
</g>
<!-- quasimoto_commands_gen&#45;&gt;quasimoto_commands_all -->
<g id="edge4" class="edge">
<title>quasimoto_commands_gen&#45;&gt;quasimoto_commands_all</title><style>.edge>path:hover{stroke-width:8}</style>
<path fill="none" stroke="black" d="M296.73,-406.28C281.39,-394.32 262.45,-379.55 246.03,-366.76"/>
<polygon fill="#a13535" stroke="black" points="247.75,-363.66 237.71,-360.27 243.44,-369.18 247.75,-363.66"/>
</g>
<!-- quasimoto_entry&#45;&gt;quasimoto___main__ -->
<g id="edge5" class="edge">
<title>quasimoto_entry&#45;&gt;quasimoto___main__</title><style>.edge>path:hover{stroke-width:8}</style>
<path fill="none" stroke="black" d="M627.2,-78.16C627.2,-70.3 627.2,-61.16 627.2,-52.57"/>
<polygon fill="#a83838" stroke="black" points="630.7,-52.49 627.2,-42.49 623.7,-52.49 630.7,-52.49"/>
</g>
<!-- quasimoto_enums -->
<g id="node7" class="node">
<title>quasimoto_enums</title><style>.edge>path:hover{stroke-width:8}</style>
<ellipse fill="#f31616" stroke="black" cx="436.2" cy="-900.17" rx="50.41" ry="21.43"/>
<text text-anchor="middle" x="436.2" y="-903.17" font-family="Helvetica,sans-Serif" font-size="10.00" fill="#ffffff">quasimoto.</text>
<text text-anchor="middle" x="436.2" y="-892.17" font-family="Helvetica,sans-Serif" font-size="10.00" fill="#ffffff">enums</text>
</g>
<!-- quasimoto_enums&#45;&gt;quasimoto_commands_gen -->
<g id="edge6" class="edge">
<title>quasimoto_enums&#45;&gt;quasimoto_commands_gen</title><style>.edge>path:hover{stroke-width:8}</style>
<path fill="none" stroke="black" d="M434.07,-878.87C432.59,-860.1 431.63,-831.51 436.2,-807.18"/>
<path fill="none" stroke="black" d="M436.2,-805.18C441.63,-776.37 426.59,-769.8 420.2,-741.19 408.17,-687.27 390.98,-674.22 396.2,-619.22"/>
<path fill="none" stroke="black" d="M396.2,-617.22C396.86,-574.74 380.97,-566.33 370.2,-525.24"/>
</g>
<!-- quasimoto_riff -->
<g id="node8" class="node">
<title>quasimoto_riff</title><style>.edge>path:hover{stroke-width:8}</style>
<ellipse fill="#9c1111" stroke="black" cx="628.2" cy="-618.22" rx="50.07" ry="18"/>
<text text-anchor="middle" x="628.2" y="-615.72" font-family="Helvetica,sans-Serif" font-size="10.00" fill="#ffffff">quasimoto.riff</text>
</g>
<!-- quasimoto_enums&#45;&gt;quasimoto_riff -->
<g id="edge7" class="edge">
<title>quasimoto_enums&#45;&gt;quasimoto_riff</title><style>.edge>path:hover{stroke-width:8}</style>
<path fill="none" stroke="black" d="M453.71,-880.04C470.06,-861.85 494.77,-833.43 514.2,-807.18"/>
<path fill="none" stroke="black" d="M514.2,-805.18C544.5,-764.27 581.89,-784.15 609.2,-741.19 627.39,-712.58 630.36,-672.75 629.97,-646.49"/>
<polygon fill="#f31616" stroke="black" points="633.47,-646.36 629.65,-636.48 626.47,-646.59 633.47,-646.36"/>
</g>
<!-- quasimoto_riff_chunk -->
<g id="node9" class="node">
<title>quasimoto_riff_chunk</title><style>.edge>path:hover{stroke-width:8}</style>
<ellipse fill="#d02424" stroke="black" cx="550.2" cy="-712.2" rx="50.41" ry="28.98"/>
<text text-anchor="middle" x="550.2" y="-720.7" font-family="Helvetica,sans-Serif" font-size="10.00" fill="#ffffff">quasimoto.</text>
<text text-anchor="middle" x="550.2" y="-709.7" font-family="Helvetica,sans-Serif" font-size="10.00" fill="#ffffff">riff.</text>
<text text-anchor="middle" x="550.2" y="-698.7" font-family="Helvetica,sans-Serif" font-size="10.00" fill="#ffffff">chunk</text>
</g>
<!-- quasimoto_enums&#45;&gt;quasimoto_riff_chunk -->
<g id="edge8" class="edge">
<title>quasimoto_enums&#45;&gt;quasimoto_riff_chunk</title><style>.edge>path:hover{stroke-width:8}</style>
<path fill="none" stroke="black" d="M436.2,-805.18C442.39,-772.29 472.35,-748.9 500.01,-733.95"/>
<polygon fill="#f31616" stroke="black" points="501.96,-736.88 509.26,-729.2 498.76,-730.65 501.96,-736.88"/>
</g>
<!-- quasimoto_wave_reader -->
<g id="node14" class="node">
<title>quasimoto_wave_reader</title><style>.edge>path:hover{stroke-width:8}</style>
<ellipse fill="#732626" stroke="black" cx="1034.2" cy="-430.25" rx="50.41" ry="28.98"/>
<text text-anchor="middle" x="1034.2" y="-438.75" font-family="Helvetica,sans-Serif" font-size="10.00" fill="#ffffff">quasimoto.</text>
<text text-anchor="middle" x="1034.2" y="-427.75" font-family="Helvetica,sans-Serif" font-size="10.00" fill="#ffffff">wave.</text>
<text text-anchor="middle" x="1034.2" y="-416.75" font-family="Helvetica,sans-Serif" font-size="10.00" fill="#ffffff">reader</text>
</g>
<!-- quasimoto_enums&#45;&gt;quasimoto_wave_reader -->
<g id="edge9" class="edge">
<title>quasimoto_enums&#45;&gt;quasimoto_wave_reader</title><style>.edge>path:hover{stroke-width:8}</style>
<path fill="none" stroke="black" d="M436.2,-805.18C469.16,-649.56 478.58,-576.71 615.2,-495.24 674.71,-459.77 873.33,-441.86 974.25,-434.87"/>
<polygon fill="#f31616" stroke="black" points="974.56,-438.36 984.3,-434.19 974.08,-431.37 974.56,-438.36"/>
</g>
<!-- quasimoto_wave_writer -->
<g id="node15" class="node">
<title>quasimoto_wave_writer</title><style>.edge>path:hover{stroke-width:8}</style>
<ellipse fill="#932424" stroke="black" cx="668.2" cy="-430.25" rx="50.41" ry="28.98"/>
<text text-anchor="middle" x="668.2" y="-438.75" font-family="Helvetica,sans-Serif" font-size="10.00" fill="#ffffff">quasimoto.</text>
<text text-anchor="middle" x="668.2" y="-427.75" font-family="Helvetica,sans-Serif" font-size="10.00" fill="#ffffff">wave.</text>
<text text-anchor="middle" x="668.2" y="-416.75" font-family="Helvetica,sans-Serif" font-size="10.00" fill="#ffffff">writer</text>
</g>
<!-- quasimoto_enums&#45;&gt;quasimoto_wave_writer -->
<g id="edge10" class="edge">
<title>quasimoto_enums&#45;&gt;quasimoto_wave_writer</title><style>.edge>path:hover{stroke-width:8}</style>
<path fill="none" stroke="black" d="M396.2,-617.22C396.97,-567.92 425.8,-562.39 458.2,-525.24"/>
<path fill="none" stroke="black" d="M458.2,-523.24C497.65,-478.01 563.48,-454.15 610.93,-442.18"/>
<polygon fill="#f31616" stroke="black" points="611.86,-445.55 620.76,-439.8 610.22,-438.75 611.86,-445.55"/>
</g>
<!-- quasimoto_riff&#45;&gt;quasimoto_commands_gen -->
<g id="edge11" class="edge">
<title>quasimoto_riff&#45;&gt;quasimoto_commands_gen</title><style>.edge>path:hover{stroke-width:8}</style>
<path fill="none" stroke="black" d="M632.87,-600.22C637.19,-580.91 641.3,-549.01 629.2,-525.24"/>
<path fill="none" stroke="black" d="M629.2,-523.24C606.98,-479.55 468.71,-452.1 386.84,-439.46"/>
<polygon fill="#9c1111" stroke="black" points="387.31,-435.99 376.9,-437.95 386.26,-442.91 387.31,-435.99"/>
</g>
<!-- quasimoto_riff&#45;&gt;quasimoto_wave_reader -->
<g id="edge12" class="edge">
<title>quasimoto_riff&#45;&gt;quasimoto_wave_reader</title><style>.edge>path:hover{stroke-width:8}</style>
<path fill="none" stroke="black" d="M639.76,-600.5C653.88,-580.89 679.23,-548.13 706.2,-525.24"/>
</g>
<!-- quasimoto_riff&#45;&gt;quasimoto_wave_writer -->
<g id="edge13" class="edge">
<title>quasimoto_riff&#45;&gt;quasimoto_wave_writer</title><style>.edge>path:hover{stroke-width:8}</style>
<path fill="none" stroke="black" d="M629.2,-523.24C619.54,-504.24 628.14,-482.28 639.7,-464.59"/>
<polygon fill="#9c1111" stroke="black" points="642.65,-466.47 645.54,-456.28 636.93,-462.44 642.65,-466.47"/>
</g>
<!-- quasimoto_riff_chunk&#45;&gt;quasimoto_riff -->
<g id="edge14" class="edge">
<title>quasimoto_riff_chunk&#45;&gt;quasimoto_riff</title><style>.edge>path:hover{stroke-width:8}</style>
<path fill="none" stroke="black" d="M571.93,-685.58C583.13,-672.37 596.71,-656.36 607.72,-643.37"/>
<polygon fill="#d02424" stroke="black" points="610.41,-645.62 614.21,-635.73 605.07,-641.09 610.41,-645.62"/>
</g>
<!-- quasimoto_riff_chunk&#45;&gt;quasimoto_wave_reader -->
<g id="edge15" class="edge">
<title>quasimoto_riff_chunk&#45;&gt;quasimoto_wave_reader</title><style>.edge>path:hover{stroke-width:8}</style>
<path fill="none" stroke="black" d="M547.49,-683.17C546.4,-656.42 548.87,-616.3 569.2,-589.23 579.29,-575.79 693.4,-536.11 706.2,-525.24"/>
<path fill="none" stroke="black" d="M706.2,-523.24C782.23,-457.54 901.81,-438.53 973.65,-433.18"/>
<polygon fill="#d02424" stroke="black" points="974.15,-436.65 983.89,-432.48 973.68,-429.67 974.15,-436.65"/>
</g>
<!-- quasimoto_riff_chunk&#45;&gt;quasimoto_wave_writer -->
<g id="edge16" class="edge">
<title>quasimoto_riff_chunk&#45;&gt;quasimoto_wave_writer</title><style>.edge>path:hover{stroke-width:8}</style>
<path fill="none" stroke="black" d="M522.66,-687.68C482.08,-650.22 415.39,-576.07 458.2,-525.24"/>
</g>
<!-- quasimoto_sampler -->
<g id="node10" class="node">
<title>quasimoto_sampler</title><style>.edge>path:hover{stroke-width:8}</style>
<ellipse fill="#964040" stroke="black" cx="835.2" cy="-250.07" rx="50.41" ry="21.43"/>
<text text-anchor="middle" x="835.2" y="-253.07" font-family="Helvetica,sans-Serif" font-size="10.00" fill="#ffffff">quasimoto.</text>
<text text-anchor="middle" x="835.2" y="-242.07" font-family="Helvetica,sans-Serif" font-size="10.00" fill="#ffffff">sampler</text>
</g>
<!-- quasimoto_wave -->
<g id="node11" class="node">
<title>quasimoto_wave</title><style>.edge>path:hover{stroke-width:8}</style>
<ellipse fill="#d60b0b" stroke="black" cx="835.2" cy="-336.27" rx="57.88" ry="18"/>
<text text-anchor="middle" x="835.2" y="-333.77" font-family="Helvetica,sans-Serif" font-size="10.00" fill="#ffffff">quasimoto.wave</text>
</g>
<!-- quasimoto_wave&#45;&gt;quasimoto_sampler -->
<g id="edge17" class="edge">
<title>quasimoto_wave&#45;&gt;quasimoto_sampler</title><style>.edge>path:hover{stroke-width:8}</style>
<path fill="none" stroke="black" d="M835.2,-318.23C835.2,-307.75 835.2,-294.01 835.2,-281.69"/>
<polygon fill="#d60b0b" stroke="black" points="838.7,-281.35 835.2,-271.35 831.7,-281.35 838.7,-281.35"/>
</g>
<!-- quasimoto_wave_mixins -->
<g id="node12" class="node">
<title>quasimoto_wave_mixins</title><style>.edge>path:hover{stroke-width:8}</style>
<ellipse fill="#932424" stroke="black" cx="1034.2" cy="-524.24" rx="50.41" ry="28.98"/>
<text text-anchor="middle" x="1034.2" y="-532.74" font-family="Helvetica,sans-Serif" font-size="10.00" fill="#ffffff">quasimoto.</text>
<text text-anchor="middle" x="1034.2" y="-521.74" font-family="Helvetica,sans-Serif" font-size="10.00" fill="#ffffff">wave.</text>
<text text-anchor="middle" x="1034.2" y="-510.74" font-family="Helvetica,sans-Serif" font-size="10.00" fill="#ffffff">mixins</text>
</g>
<!-- quasimoto_wave_mixins&#45;&gt;quasimoto_wave_reader -->
<g id="edge18" class="edge">
<title>quasimoto_wave_mixins&#45;&gt;quasimoto_wave_reader</title><style>.edge>path:hover{stroke-width:8}</style>
<path fill="none" stroke="black" d="M1034.2,-495.14C1034.2,-487.1 1034.2,-478.2 1034.2,-469.66"/>
<polygon fill="#932424" stroke="black" points="1037.7,-469.5 1034.2,-459.5 1030.7,-469.5 1037.7,-469.5"/>
</g>
<!-- quasimoto_wave_mixins&#45;&gt;quasimoto_wave_writer -->
<g id="edge19" class="edge">
<title>quasimoto_wave_mixins&#45;&gt;quasimoto_wave_writer</title><style>.edge>path:hover{stroke-width:8}</style>
<path fill="none" stroke="black" d="M988.59,-511.77C921.42,-494.89 796.06,-463.39 723.67,-445.19"/>
<polygon fill="#932424" stroke="black" points="724.37,-441.76 713.82,-442.72 722.66,-448.55 724.37,-441.76"/>
</g>
<!-- quasimoto_wave_protocol -->
<g id="node13" class="node">
<title>quasimoto_wave_protocol</title><style>.edge>path:hover{stroke-width:8}</style>
<ellipse fill="#913030" stroke="black" cx="1034.2" cy="-618.22" rx="50.41" ry="28.98"/>
<text text-anchor="middle" x="1034.2" y="-626.72" font-family="Helvetica,sans-Serif" font-size="10.00" fill="#ffffff">quasimoto.</text>
<text text-anchor="middle" x="1034.2" y="-615.72" font-family="Helvetica,sans-Serif" font-size="10.00" fill="#ffffff">wave.</text>
<text text-anchor="middle" x="1034.2" y="-604.72" font-family="Helvetica,sans-Serif" font-size="10.00" fill="#ffffff">protocol</text>
</g>
<!-- quasimoto_wave_protocol&#45;&gt;quasimoto_wave_mixins -->
<g id="edge20" class="edge">
<title>quasimoto_wave_protocol&#45;&gt;quasimoto_wave_mixins</title><style>.edge>path:hover{stroke-width:8}</style>
<path fill="none" stroke="black" d="M1034.2,-589.12C1034.2,-581.08 1034.2,-572.18 1034.2,-563.64"/>
<polygon fill="#913030" stroke="black" points="1037.7,-563.48 1034.2,-553.48 1030.7,-563.48 1037.7,-563.48"/>
</g>
<!-- quasimoto_wave_reader&#45;&gt;quasimoto_wave -->
<g id="edge21" class="edge">
<title>quasimoto_wave_reader&#45;&gt;quasimoto_wave</title><style>.edge>path:hover{stroke-width:8}</style>
<path fill="none" stroke="black" d="M995.84,-411.52C961.35,-395.58 910.88,-372.25 875.75,-356.01"/>
<polygon fill="#732626" stroke="black" points="876.82,-352.65 866.27,-351.63 873.88,-359 876.82,-352.65"/>
</g>
<!-- quasimoto_wave_writer&#45;&gt;quasimoto_sampler -->
<g id="edge22" class="edge">
<title>quasimoto_wave_writer&#45;&gt;quasimoto_sampler</title><style>.edge>path:hover{stroke-width:8}</style>
<path fill="none" stroke="black" d="M620.01,-421.62C545.26,-408.45 410.83,-378.82 420.2,-337.27"/>
</g>
<!-- quasimoto_wave_writer&#45;&gt;quasimoto_wave -->
<g id="edge23" class="edge">
<title>quasimoto_wave_writer&#45;&gt;quasimoto_wave</title><style>.edge>path:hover{stroke-width:8}</style>
<path fill="none" stroke="black" d="M704.03,-409.52C732.01,-394.11 770.74,-372.78 798.86,-357.29"/>
<polygon fill="#932424" stroke="black" points="800.89,-360.17 807.96,-352.28 797.51,-354.04 800.89,-360.17"/>
</g>
<!-- runtimepy -->
<g id="node16" class="node">
<title>runtimepy</title><style>.edge>path:hover{stroke-width:8}</style>
<ellipse fill="#10f910" stroke="black" cx="1269.2" cy="-900.17" rx="39.38" ry="18"/>
<text text-anchor="middle" x="1269.2" y="-897.67" font-family="Helvetica,sans-Serif" font-size="10.00" fill="#000000">runtimepy</text>
</g>
<!-- runtimepy&#45;&gt;quasimoto_riff -->
<g id="edge24" class="edge">
<title>runtimepy&#45;&gt;quasimoto_riff</title><style>.edge>path:hover{stroke-width:8}</style>
<path fill="none" stroke="black" d="M1250.11,-884.21C1210.69,-853.42 1122.67,-785.13 1107.2,-777.19 935.27,-688.89 873.24,-714.92 692.2,-647.21 683.96,-644.13 675.24,-640.54 666.99,-636.99"/>
<polygon fill="#10f910" stroke="black" points="668.13,-633.66 657.56,-632.86 665.32,-640.08 668.13,-633.66"/>
</g>
<!-- runtimepy&#45;&gt;quasimoto_sampler -->
<g id="edge25" class="edge">
<title>runtimepy&#45;&gt;quasimoto_sampler</title><style>.edge>path:hover{stroke-width:8}</style>
<path fill="none" stroke="black" d="M1112.2,-523.24C1084.1,-476.12 1124.14,-446.57 1093.2,-401.26 1043.37,-328.28 945.47,-285.89 885.63,-265.71"/>
<polygon fill="#10f910" stroke="black" points="886.6,-262.35 876.01,-262.55 884.42,-269 886.6,-262.35"/>
</g>
<!-- runtimepy&#45;&gt;quasimoto_wave_mixins -->
<g id="edge26" class="edge">
<title>runtimepy&#45;&gt;quasimoto_wave_mixins</title><style>.edge>path:hover{stroke-width:8}</style>
<path fill="none" stroke="black" d="M1112.2,-711.2C1087.47,-678.65 1120.19,-659.31 1112.2,-619.22"/>
<path fill="none" stroke="black" d="M1112.2,-617.22C1107.27,-592.47 1089.69,-570.63 1072.47,-554.45"/>
<polygon fill="#10f910" stroke="black" points="1074.41,-551.49 1064.63,-547.43 1069.74,-556.71 1074.41,-551.49"/>
</g>
<!-- runtimepy&#45;&gt;quasimoto_wave_protocol -->
<g id="edge27" class="edge">
<title>runtimepy&#45;&gt;quasimoto_wave_protocol</title><style>.edge>path:hover{stroke-width:8}</style>
<path fill="none" stroke="black" d="M1265.27,-882.02C1258.74,-856.66 1243.59,-808.76 1216.2,-777.19 1180.64,-736.2 1145.71,-755.9 1112.2,-713.2"/>
<path fill="none" stroke="black" d="M1112.2,-711.2C1096.82,-690.96 1078.49,-669.23 1063.46,-651.98"/>
<polygon fill="#10f910" stroke="black" points="1066.03,-649.6 1056.81,-644.39 1060.77,-654.21 1066.03,-649.6"/>
</g>
<!-- runtimepy&#45;&gt;quasimoto_wave_reader -->
<g id="edge28" class="edge">
<title>runtimepy&#45;&gt;quasimoto_wave_reader</title><style>.edge>path:hover{stroke-width:8}</style>
<path fill="none" stroke="black" d="M1112.2,-523.24C1104.5,-510.32 1102.55,-507.02 1093.2,-495.24 1084.6,-484.4 1074.59,-473.11 1065.29,-463.1"/>
<polygon fill="#10f910" stroke="black" points="1067.75,-460.61 1058.36,-455.72 1062.65,-465.4 1067.75,-460.61"/>
</g>
<!-- runtimepy&#45;&gt;quasimoto_wave_writer -->
<g id="edge29" class="edge">
<title>runtimepy&#45;&gt;quasimoto_wave_writer</title><style>.edge>path:hover{stroke-width:8}</style>
<path fill="none" stroke="black" d="M1112.2,-617.22C1104.22,-577.13 1133.15,-560.35 1112.2,-525.24"/>
<path fill="none" stroke="black" d="M1112.2,-523.24C1104.5,-510.32 1105.93,-503.26 1093.2,-495.24 1033.61,-457.72 830.82,-440.74 728.42,-434.41"/>
<polygon fill="#10f910" stroke="black" points="728.42,-430.91 718.23,-433.8 728,-437.89 728.42,-430.91"/>
</g>
<!-- runtimepy_codec -->
<g id="node17" class="node">
<title>runtimepy_codec</title><style>.edge>path:hover{stroke-width:8}</style>
<ellipse fill="#3bce3b" stroke="black" cx="934.2" cy="-900.17" rx="48.17" ry="21.43"/>
<text text-anchor="middle" x="934.2" y="-903.17" font-family="Helvetica,sans-Serif" font-size="10.00" fill="#000000">runtimepy.</text>
<text text-anchor="middle" x="934.2" y="-892.17" font-family="Helvetica,sans-Serif" font-size="10.00" fill="#000000">codec</text>
</g>
<!-- runtimepy_codec&#45;&gt;quasimoto_wave_mixins -->
<g id="edge30" class="edge">
<title>runtimepy_codec&#45;&gt;quasimoto_wave_mixins</title><style>.edge>path:hover{stroke-width:8}</style>
<path fill="none" stroke="black" d="M921.08,-879.56C910.34,-861.5 897.08,-833.57 898.2,-807.18"/>
</g>
<!-- runtimepy_codec&#45;&gt;quasimoto_wave_protocol -->
<g id="edge31" class="edge">
<title>runtimepy_codec&#45;&gt;quasimoto_wave_protocol</title><style>.edge>path:hover{stroke-width:8}</style>
<path fill="none" stroke="black" d="M926.62,-878.98C919.58,-856.39 913.28,-821.13 936.2,-807.18"/>
</g>
<!-- runtimepy_codec_protocol -->
<g id="node18" class="node">
<title>runtimepy_codec_protocol</title><style>.edge>path:hover{stroke-width:8}</style>
<ellipse fill="#2bac2b" stroke="black" cx="1050.2" cy="-806.18" rx="48.17" ry="28.98"/>
<text text-anchor="middle" x="1050.2" y="-814.68" font-family="Helvetica,sans-Serif" font-size="10.00" fill="#ffffff">runtimepy.</text>
<text text-anchor="middle" x="1050.2" y="-803.68" font-family="Helvetica,sans-Serif" font-size="10.00" fill="#ffffff">codec.</text>
<text text-anchor="middle" x="1050.2" y="-792.68" font-family="Helvetica,sans-Serif" font-size="10.00" fill="#ffffff">protocol</text>
</g>
<!-- runtimepy_codec_protocol&#45;&gt;quasimoto_wave_mixins -->
<g id="edge32" class="edge">
<title>runtimepy_codec_protocol&#45;&gt;quasimoto_wave_mixins</title><style>.edge>path:hover{stroke-width:8}</style>
<path fill="none" stroke="black" d="M1023.55,-781.76C987.22,-746.83 929.56,-678.83 956.2,-619.22"/>
</g>
<!-- runtimepy_codec_protocol&#45;&gt;quasimoto_wave_protocol -->
<g id="edge33" class="edge">
<title>runtimepy_codec_protocol&#45;&gt;quasimoto_wave_protocol</title><style>.edge>path:hover{stroke-width:8}</style>
<path fill="none" stroke="black" d="M1064.21,-778.32C1072.02,-760.03 1079.25,-735.24 1074.2,-713.2"/>
</g>
<!-- runtimepy_enum -->
<g id="node19" class="node">
<title>runtimepy_enum</title><style>.edge>path:hover{stroke-width:8}</style>
<ellipse fill="#17d317" stroke="black" cx="1206.2" cy="-1088.13" rx="56.52" ry="18"/>
<text text-anchor="middle" x="1206.2" y="-1085.63" font-family="Helvetica,sans-Serif" font-size="10.00" fill="#000000">runtimepy.enum</text>
</g>
<!-- runtimepy_enum&#45;&gt;quasimoto_wave_protocol -->
<g id="edge34" class="edge">
<title>runtimepy_enum&#45;&gt;quasimoto_wave_protocol</title><style>.edge>path:hover{stroke-width:8}</style>
<path fill="none" stroke="black" d="M1202.2,-899.17C1188.57,-860.63 1216.85,-845.35 1202.2,-807.18"/>
</g>
<!-- runtimepy_enum&#45;&gt;runtimepy_codec_protocol -->
<g id="edge35" class="edge">
<title>runtimepy_enum&#45;&gt;runtimepy_codec_protocol</title><style>.edge>path:hover{stroke-width:8}</style>
<path fill="none" stroke="black" d="M1202.2,-993.15C1190.29,-954.04 1215.84,-939.71 1202.2,-901.17"/>
<path fill="none" stroke="black" d="M1202.2,-899.17C1187.52,-857.66 1141.95,-833.84 1104.51,-820.89"/>
<polygon fill="#17d317" stroke="black" points="1105.29,-817.46 1094.69,-817.68 1103.11,-824.12 1105.29,-817.46"/>
</g>
<!-- runtimepy_primitives_byte_order -->
<g id="node22" class="node">
<title>runtimepy_primitives_byte_order</title><style>.edge>path:hover{stroke-width:8}</style>
<ellipse fill="#3ab03a" stroke="black" cx="1087.2" cy="-900.17" rx="48.58" ry="28.98"/>
<text text-anchor="middle" x="1087.2" y="-908.67" font-family="Helvetica,sans-Serif" font-size="10.00" fill="#ffffff">runtimepy.</text>
<text text-anchor="middle" x="1087.2" y="-897.67" font-family="Helvetica,sans-Serif" font-size="10.00" fill="#ffffff">primitives.</text>
<text text-anchor="middle" x="1087.2" y="-886.67" font-family="Helvetica,sans-Serif" font-size="10.00" fill="#ffffff">byte_order</text>
</g>
<!-- runtimepy_enum&#45;&gt;runtimepy_primitives_byte_order -->
<g id="edge36" class="edge">
<title>runtimepy_enum&#45;&gt;runtimepy_primitives_byte_order</title><style>.edge>path:hover{stroke-width:8}</style>
<path fill="none" stroke="black" d="M1207.96,-1070.09C1209.33,-1051.3 1209.89,-1020.38 1202.2,-995.15"/>
<path fill="none" stroke="black" d="M1202.2,-993.15C1192.4,-960.96 1162.27,-937.56 1135.32,-922.41"/>
<polygon fill="#17d317" stroke="black" points="1136.8,-919.23 1126.33,-917.59 1133.49,-925.4 1136.8,-919.23"/>
</g>
<!-- runtimepy_enum_registry -->
<g id="node20" class="node">
<title>runtimepy_enum_registry</title><style>.edge>path:hover{stroke-width:8}</style>
<ellipse fill="#2fbc2f" stroke="black" cx="1083.2" cy="-1088.13" rx="48.17" ry="28.98"/>
<text text-anchor="middle" x="1083.2" y="-1096.63" font-family="Helvetica,sans-Serif" font-size="10.00" fill="#000000">runtimepy.</text>
<text text-anchor="middle" x="1083.2" y="-1085.63" font-family="Helvetica,sans-Serif" font-size="10.00" fill="#000000">enum.</text>
<text text-anchor="middle" x="1083.2" y="-1074.63" font-family="Helvetica,sans-Serif" font-size="10.00" fill="#000000">registry</text>
</g>
<!-- runtimepy_enum_registry&#45;&gt;quasimoto_wave_protocol -->
<g id="edge37" class="edge">
<title>runtimepy_enum_registry&#45;&gt;quasimoto_wave_protocol</title><style>.edge>path:hover{stroke-width:8}</style>
<path fill="none" stroke="black" d="M1087.2,-993.15C1089.11,-954.81 1123.95,-961.12 1145.2,-929.16 1161.77,-904.24 1213,-835.09 1202.2,-807.18"/>
<path fill="none" stroke="black" d="M1202.2,-805.18C1177.1,-739.78 1088.2,-781.84 1074.2,-713.2"/>
</g>
<!-- runtimepy_enum_registry&#45;&gt;runtimepy_codec_protocol -->
<g id="edge38" class="edge">
<title>runtimepy_enum_registry&#45;&gt;runtimepy_codec_protocol</title><style>.edge>path:hover{stroke-width:8}</style>
<path fill="none" stroke="black" d="M1084.75,-1058.96C1085.67,-1040.76 1086.75,-1016.56 1087.2,-995.15"/>
<path fill="none" stroke="black" d="M1087.2,-993.15C1088.02,-954.77 1043.02,-964.97 1029.2,-929.16 1018.55,-901.55 1025.44,-868.35 1034.08,-843.56"/>
<polygon fill="#2fbc2f" stroke="black" points="1037.37,-844.76 1037.57,-834.16 1030.8,-842.31 1037.37,-844.76"/>
</g>
<!-- runtimepy_enum_registry&#45;&gt;runtimepy_primitives_byte_order -->
<g id="edge39" class="edge">
<title>runtimepy_enum_registry&#45;&gt;runtimepy_primitives_byte_order</title><style>.edge>path:hover{stroke-width:8}</style>
<path fill="none" stroke="black" d="M1087.2,-993.15C1087.58,-975.6 1087.63,-956.16 1087.57,-939.69"/>
<polygon fill="#2fbc2f" stroke="black" points="1091.07,-939.33 1087.51,-929.35 1084.07,-939.37 1091.07,-939.33"/>
</g>
<!-- runtimepy_primitives -->
<g id="node21" class="node">
<title>runtimepy_primitives</title><style>.edge>path:hover{stroke-width:8}</style>
<ellipse fill="#0ce90c" stroke="black" cx="590.2" cy="-900.17" rx="48.17" ry="21.43"/>
<text text-anchor="middle" x="590.2" y="-903.17" font-family="Helvetica,sans-Serif" font-size="10.00" fill="#000000">runtimepy.</text>
<text text-anchor="middle" x="590.2" y="-892.17" font-family="Helvetica,sans-Serif" font-size="10.00" fill="#000000">primitives</text>
</g>
<!-- runtimepy_primitives&#45;&gt;quasimoto_riff -->
<g id="edge40" class="edge">
<title>runtimepy_primitives&#45;&gt;quasimoto_riff</title><style>.edge>path:hover{stroke-width:8}</style>
<path fill="none" stroke="black" d="M604.07,-879.61C625.9,-846.85 665.86,-778.07 666.2,-713.2"/>
<path fill="none" stroke="black" d="M666.2,-711.2C669.2,-687.41 657.78,-662.37 646.69,-644.44"/>
<polygon fill="#0ce90c" stroke="black" points="649.41,-642.2 641,-635.75 643.55,-646.04 649.41,-642.2"/>
</g>
<!-- runtimepy_primitives&#45;&gt;quasimoto_sampler -->
<g id="edge41" class="edge">
<title>runtimepy_primitives&#45;&gt;quasimoto_sampler</title><style>.edge>path:hover{stroke-width:8}</style>
<path fill="none" stroke="black" d="M558.85,-884C539.28,-873.01 515.06,-856.37 500.2,-835.18 435.89,-743.41 395.54,-446.59 420.2,-337.27"/>
<path fill="none" stroke="black" d="M420.2,-335.27C436.27,-266.27 663.37,-253.44 774.64,-251.31"/>
<polygon fill="#0ce90c" stroke="black" points="774.77,-254.81 784.71,-251.14 774.65,-247.81 774.77,-254.81"/>
</g>
<!-- runtimepy_primitives&#45;&gt;quasimoto_wave_protocol -->
<g id="edge42" class="edge">
<title>runtimepy_primitives&#45;&gt;quasimoto_wave_protocol</title><style>.edge>path:hover{stroke-width:8}</style>
<path fill="none" stroke="black" d="M627.82,-886.87C645.15,-881.51 666.08,-875.49 685.2,-871.18 784.85,-848.69 823.04,-885.01 912.2,-835.18 926.51,-827.18 922.2,-815.7 936.2,-807.18"/>
<path fill="none" stroke="black" d="M936.2,-805.18C951.95,-795.61 1077.89,-731.26 1074.2,-713.2"/>
<path fill="none" stroke="black" d="M1074.2,-711.2C1070.28,-691.95 1062.04,-671.79 1054.05,-655.27"/>
<polygon fill="#0ce90c" stroke="black" points="1057.02,-653.38 1049.42,-646 1050.76,-656.51 1057.02,-653.38"/>
</g>
<!-- runtimepy_primitives&#45;&gt;quasimoto_wave_reader -->
<g id="edge43" class="edge">
<title>runtimepy_primitives&#45;&gt;quasimoto_wave_reader</title><style>.edge>path:hover{stroke-width:8}</style>
<path fill="none" stroke="black" d="M706.2,-617.22C712.24,-576.79 675.27,-551.96 706.2,-525.24"/>
</g>
<!-- runtimepy_primitives&#45;&gt;quasimoto_wave_writer -->
<g id="edge44" class="edge">
<title>runtimepy_primitives&#45;&gt;quasimoto_wave_writer</title><style>.edge>path:hover{stroke-width:8}</style>
<path fill="none" stroke="black" d="M666.2,-711.2C671.78,-666.97 701.69,-663.57 706.2,-619.22"/>
<path fill="none" stroke="black" d="M706.2,-617.22C709.15,-588.26 698.13,-581.73 692.2,-553.23 686.39,-525.25 680.17,-493.58 675.52,-469.53"/>
<polygon fill="#0ce90c" stroke="black" points="678.9,-468.54 673.57,-459.39 672.02,-469.87 678.9,-468.54"/>
</g>
<!-- runtimepy_primitives_byte_order&#45;&gt;quasimoto_riff -->
<g id="edge45" class="edge">
<title>runtimepy_primitives_byte_order&#45;&gt;quasimoto_riff</title><style>.edge>path:hover{stroke-width:8}</style>
<path fill="none" stroke="black" d="M1054.7,-878.1C993.9,-838.84 858.59,-752.25 742.2,-683.21 716.13,-667.74 686.22,-650.99 663.58,-638.51"/>
<polygon fill="#3ab03a" stroke="black" points="665.12,-635.36 654.67,-633.61 661.75,-641.49 665.12,-635.36"/>
</g>
<!-- runtimepy_primitives_byte_order&#45;&gt;quasimoto_wave_protocol -->
<g id="edge46" class="edge">
<title>runtimepy_primitives_byte_order&#45;&gt;quasimoto_wave_protocol</title><style>.edge>path:hover{stroke-width:8}</style>
<path fill="none" stroke="black" d="M1097.84,-871.57C1101.59,-860.44 1105.34,-847.37 1107.2,-835.18 1111.09,-809.7 1113.28,-802.24 1107.2,-777.19 1099.66,-746.1 1081.35,-744.39 1074.2,-713.2"/>
</g>
<!-- vcorelib -->
<g id="node23" class="node">
<title>vcorelib</title><style>.edge>path:hover{stroke-width:8}</style>
<ellipse fill="#1010f9" stroke="black" cx="1206.2" cy="-1245.12" rx="32.93" ry="18"/>
<text text-anchor="middle" x="1206.2" y="-1242.62" font-family="Helvetica,sans-Serif" font-size="10.00" fill="#ffffff">vcorelib</text>
</g>
<!-- vcorelib&#45;&gt;quasimoto_app -->
<g id="edge47" class="edge">
<title>vcorelib&#45;&gt;quasimoto_app</title><style>.edge>path:hover{stroke-width:8}</style>
<path fill="none" stroke="black" d="M1210.71,-1227.07C1214.74,-1208.08 1218.35,-1177.04 1206.2,-1154.12"/>
<path fill="none" stroke="black" d="M1206.2,-1153.12C1200.71,-1144.98 867.43,-1092.51 858.2,-1089.13"/>
<path fill="none" stroke="black" d="M858.2,-1087.13C726.06,-1038.71 659.5,-1089.64 555.2,-995.15"/>
<path fill="none" stroke="black" d="M555.2,-993.15C492.9,-936.71 430.72,-993.99 377.2,-929.16 342.28,-886.85 376.99,-858.73 358.2,-807.18"/>
<path fill="none" stroke="black" d="M358.2,-805.18C332.82,-745.57 263.19,-795.08 227.2,-741.19 150.56,-626.42 235.78,-566.48 208.2,-431.25"/>
<path fill="none" stroke="black" d="M208.2,-429.25C199.94,-390.84 171.88,-395.84 147.2,-365.26 137.76,-353.56 134.14,-351.09 128.2,-337.27"/>
<path fill="none" stroke="black" d="M128.2,-335.27C113.43,-300.88 136.27,-287.61 128.2,-251.07"/>
<path fill="none" stroke="black" d="M128.2,-249.07C124.92,-234.18 124.71,-217.17 125.42,-203.3"/>
<polygon fill="#1010f9" stroke="black" points="128.94,-203.16 126.14,-192.94 121.96,-202.68 128.94,-203.16"/>
</g>
<!-- vcorelib&#45;&gt;quasimoto_commands_all -->
<g id="edge48" class="edge">
<title>vcorelib&#45;&gt;quasimoto_commands_all</title><style>.edge>path:hover{stroke-width:8}</style>
<path fill="none" stroke="black" d="M208.2,-429.25C204.67,-411.93 204.19,-392.38 204.79,-375.77"/>
<polygon fill="#1010f9" stroke="black" points="208.31,-375.5 205.32,-365.34 201.32,-375.15 208.31,-375.5"/>
</g>
<!-- vcorelib&#45;&gt;quasimoto_commands_gen -->
<g id="edge49" class="edge">
<title>vcorelib&#45;&gt;quasimoto_commands_gen</title><style>.edge>path:hover{stroke-width:8}</style>
<path fill="none" stroke="black" d="M358.2,-805.18C317.05,-687.64 401.75,-645.71 370.2,-525.24"/>
<path fill="none" stroke="black" d="M370.2,-523.24C364.49,-504.09 355.26,-483.95 346.73,-467.42"/>
<polygon fill="#1010f9" stroke="black" points="349.59,-465.33 341.82,-458.13 343.4,-468.61 349.59,-465.33"/>
</g>
<!-- vcorelib&#45;&gt;quasimoto_entry -->
<g id="edge50" class="edge">
<title>vcorelib&#45;&gt;quasimoto_entry</title><style>.edge>path:hover{stroke-width:8}</style>
<path fill="none" stroke="black" d="M1206.2,-1153.12C1187.51,-1125.43 1251.9,-1143.66 1272.2,-1117.12 1339.74,-1028.88 1337.25,-980.48 1317.2,-871.18 1279.47,-665.47 1063.9,-621.75 1150.2,-431.25"/>
</g>
<!-- vcorelib&#45;&gt;quasimoto_riff -->
<g id="edge51" class="edge">
<title>vcorelib&#45;&gt;quasimoto_riff</title><style>.edge>path:hover{stroke-width:8}</style>
<path fill="none" stroke="black" d="M555.2,-993.15C522.47,-964.2 510.58,-812.32 514.2,-807.18"/>
</g>
<!-- vcorelib&#45;&gt;quasimoto_wave_mixins -->
<g id="edge52" class="edge">
<title>vcorelib&#45;&gt;quasimoto_wave_mixins</title><style>.edge>path:hover{stroke-width:8}</style>
<path fill="none" stroke="black" d="M858.2,-1087.13C768.4,-1052.23 857.83,-965.56 877.2,-871.18 883.22,-841.85 896.93,-837.09 898.2,-807.18"/>
<path fill="none" stroke="black" d="M898.2,-805.18C898.97,-764.22 886.08,-749.94 904.2,-713.2"/>
</g>
<!-- vcorelib&#45;&gt;quasimoto_wave_reader -->
<g id="edge53" class="edge">
<title>vcorelib&#45;&gt;quasimoto_wave_reader</title><style>.edge>path:hover{stroke-width:8}</style>
<path fill="none" stroke="black" d="M555.2,-993.15C518.29,-959.71 612.19,-964.58 647.2,-929.16 657.78,-918.47 659.55,-914.65 666.2,-901.17"/>
<path fill="none" stroke="black" d="M666.2,-899.17C695.33,-840.2 770.81,-684.42 762.2,-619.22"/>
<path fill="none" stroke="black" d="M762.2,-617.22C750.98,-570.69 669.99,-556.53 706.2,-525.24"/>
</g>
<!-- vcorelib&#45;&gt;runtimepy_enum -->
<g id="edge54" class="edge">
<title>vcorelib&#45;&gt;runtimepy_enum</title><style>.edge>path:hover{stroke-width:8}</style>
<path fill="none" stroke="black" d="M1206.2,-1153.12C1200.29,-1141.96 1199.63,-1128.09 1200.72,-1116.12"/>
<polygon fill="#1010f9" stroke="black" points="1204.19,-1116.58 1202.05,-1106.21 1197.25,-1115.66 1204.19,-1116.58"/>
</g>
<!-- vcorelib&#45;&gt;runtimepy_enum_registry -->
<g id="edge55" class="edge">
<title>vcorelib&#45;&gt;runtimepy_enum_registry</title><style>.edge>path:hover{stroke-width:8}</style>
<path fill="none" stroke="black" d="M1206.2,-1153.12C1205.15,-1151.13 1163.05,-1129.48 1128.4,-1111.9"/>
<polygon fill="#1010f9" stroke="black" points="1129.83,-1108.7 1119.32,-1107.31 1126.66,-1114.95 1129.83,-1108.7"/>
</g>
<!-- vcorelib_args -->
<g id="node24" class="node">
<title>vcorelib_args</title><style>.edge>path:hover{stroke-width:8}</style>
<ellipse fill="#3b3bce" stroke="black" cx="283.2" cy="-712.2" rx="47.19" ry="18"/>
<text text-anchor="middle" x="283.2" y="-709.7" font-family="Helvetica,sans-Serif" font-size="10.00" fill="#ffffff">vcorelib.args</text>
</g>
<!-- vcorelib_args&#45;&gt;quasimoto_app -->
<g id="edge56" class="edge">
<title>vcorelib_args&#45;&gt;quasimoto_app</title><style>.edge>path:hover{stroke-width:8}</style>
<path fill="none" stroke="black" d="M290.82,-694.33C304.57,-661.73 331.18,-587.81 320.2,-525.24"/>
<path fill="none" stroke="black" d="M320.2,-523.24C314.91,-486.11 287.99,-489.03 265.2,-459.24 256.07,-447.3 255.66,-442.95 246.2,-431.25"/>
<path fill="none" stroke="black" d="M246.2,-429.25C235.9,-416.51 235.2,-411.24 222.2,-401.26 192.88,-378.75 175.22,-389.39 147.2,-365.26 135.81,-355.45 134.14,-351.09 128.2,-337.27"/>
</g>
<!-- vcorelib_args&#45;&gt;quasimoto_commands_all -->
<g id="edge57" class="edge">
<title>vcorelib_args&#45;&gt;quasimoto_commands_all</title><style>.edge>path:hover{stroke-width:8}</style>
<path fill="none" stroke="black" d="M246.2,-429.25C233.37,-413.38 224.29,-392.57 218.23,-374.76"/>
<polygon fill="#3b3bce" stroke="black" points="221.56,-373.68 215.17,-365.23 214.9,-375.82 221.56,-373.68"/>
</g>
<!-- vcorelib_args&#45;&gt;quasimoto_commands_gen -->
<g id="edge58" class="edge">
<title>vcorelib_args&#45;&gt;quasimoto_commands_gen</title><style>.edge>path:hover{stroke-width:8}</style>
<path fill="none" stroke="black" d="M320.2,-523.24C317.11,-505.61 317.87,-485.84 319.7,-469.16"/>
<polygon fill="#3b3bce" stroke="black" points="323.17,-469.57 320.95,-459.21 316.23,-468.7 323.17,-469.57"/>
</g>
<!-- vcorelib_logging -->
<g id="node25" class="node">
<title>vcorelib_logging</title><style>.edge>path:hover{stroke-width:8}</style>
<ellipse fill="#2121bf" stroke="black" cx="828.2" cy="-806.18" rx="41.94" ry="21.43"/>
<text text-anchor="middle" x="828.2" y="-809.18" font-family="Helvetica,sans-Serif" font-size="10.00" fill="#ffffff">vcorelib.</text>
<text text-anchor="middle" x="828.2" y="-798.18" font-family="Helvetica,sans-Serif" font-size="10.00" fill="#ffffff">logging</text>
</g>
<!-- vcorelib_logging&#45;&gt;quasimoto_entry -->
<g id="edge59" class="edge">
<title>vcorelib_logging&#45;&gt;quasimoto_entry</title><style>.edge>path:hover{stroke-width:8}</style>
<path fill="none" stroke="black" d="M831.96,-784.72C843.18,-729.46 881.65,-575.98 975.2,-495.24 1037.9,-441.14 1114.25,-505.86 1150.2,-431.25"/>
<path fill="none" stroke="black" d="M1150.2,-429.25C1239.14,-224.31 836.94,-135.3 684.09,-109.26"/>
<polygon fill="#2121bf" stroke="black" points="684.4,-105.76 673.96,-107.56 683.24,-112.67 684.4,-105.76"/>
</g>
<!-- vcorelib_logging&#45;&gt;quasimoto_riff -->
<g id="edge60" class="edge">
<title>vcorelib_logging&#45;&gt;quasimoto_riff</title><style>.edge>path:hover{stroke-width:8}</style>
<path fill="none" stroke="black" d="M808.66,-787.01C772.08,-753 693.33,-679.77 653.04,-642.31"/>
<polygon fill="#2121bf" stroke="black" points="655.23,-639.57 645.52,-635.32 650.46,-644.69 655.23,-639.57"/>
</g>
<!-- vcorelib_logging&#45;&gt;quasimoto_wave_mixins -->
<g id="edge61" class="edge">
<title>vcorelib_logging&#45;&gt;quasimoto_wave_mixins</title><style>.edge>path:hover{stroke-width:8}</style>
<path fill="none" stroke="black" d="M847.39,-787.31C864.81,-770 889.91,-742.18 904.2,-713.2"/>
<path fill="none" stroke="black" d="M904.2,-711.2C924.98,-669.09 935.94,-661.58 956.2,-619.22"/>
<path fill="none" stroke="black" d="M956.2,-617.22C967.02,-594.61 984.76,-573.04 1000.6,-556.48"/>
<polygon fill="#2121bf" stroke="black" points="1003.2,-558.82 1007.71,-549.23 998.21,-553.92 1003.2,-558.82"/>
</g>
<!-- vcorelib_math -->
<g id="node26" class="node">
<title>vcorelib_math</title><style>.edge>path:hover{stroke-width:8}</style>
<ellipse fill="#2323c8" stroke="black" cx="743.2" cy="-900.17" rx="49.4" ry="18"/>
<text text-anchor="middle" x="743.2" y="-897.67" font-family="Helvetica,sans-Serif" font-size="10.00" fill="#ffffff">vcorelib.math</text>
</g>
<!-- vcorelib_math&#45;&gt;quasimoto_wave_reader -->
<g id="edge62" class="edge">
<title>vcorelib_math&#45;&gt;quasimoto_wave_reader</title><style>.edge>path:hover{stroke-width:8}</style>
<path fill="none" stroke="black" d="M747.11,-881.99C756.51,-837.99 778.49,-717.75 762.2,-619.22"/>
</g>
<!-- vcorelib_math&#45;&gt;vcorelib_logging -->
<g id="edge63" class="edge">
<title>vcorelib_math&#45;&gt;vcorelib_logging</title><style>.edge>path:hover{stroke-width:8}</style>
<path fill="none" stroke="black" d="M758.4,-882.72C771.12,-868.96 789.5,-849.06 804.21,-833.15"/>
<polygon fill="#2323c8" stroke="black" points="806.88,-835.42 811.09,-825.7 801.74,-830.67 806.88,-835.42"/>
</g>
<!-- vcorelib_math_time -->
<g id="node27" class="node">
<title>vcorelib_math_time</title><style>.edge>path:hover{stroke-width:8}</style>
<ellipse fill="#3131c4" stroke="black" cx="666.2" cy="-994.15" rx="41.94" ry="28.98"/>
<text text-anchor="middle" x="666.2" y="-1002.65" font-family="Helvetica,sans-Serif" font-size="10.00" fill="#ffffff">vcorelib.</text>
<text text-anchor="middle" x="666.2" y="-991.65" font-family="Helvetica,sans-Serif" font-size="10.00" fill="#ffffff">math.</text>
<text text-anchor="middle" x="666.2" y="-980.65" font-family="Helvetica,sans-Serif" font-size="10.00" fill="#ffffff">time</text>
</g>
<!-- vcorelib_math_time&#45;&gt;quasimoto_wave_reader -->
<g id="edge64" class="edge">
<title>vcorelib_math_time&#45;&gt;quasimoto_wave_reader</title><style>.edge>path:hover{stroke-width:8}</style>
<path fill="none" stroke="black" d="M659.98,-965.13C657.21,-946.11 656.44,-920.93 666.2,-901.17"/>
</g>
<!-- vcorelib_math_time&#45;&gt;vcorelib_logging -->
<g id="edge65" class="edge">
<title>vcorelib_math_time&#45;&gt;vcorelib_logging</title><style>.edge>path:hover{stroke-width:8}</style>
<path fill="none" stroke="black" d="M705.86,-984.44C736.45,-975.65 777.44,-958.97 801.2,-929.16 821.88,-903.22 827.49,-864.75 828.65,-837.97"/>
<polygon fill="#3131c4" stroke="black" points="832.16,-837.71 828.91,-827.63 825.16,-837.54 832.16,-837.71"/>
</g>
<!-- vcorelib_math_time&#45;&gt;vcorelib_math -->
<g id="edge66" class="edge">
<title>vcorelib_math_time&#45;&gt;vcorelib_math</title><style>.edge>path:hover{stroke-width:8}</style>
<path fill="none" stroke="black" d="M686.84,-968.5C697.98,-955.19 711.69,-938.82 722.79,-925.55"/>
<polygon fill="#3131c4" stroke="black" points="725.59,-927.66 729.33,-917.75 720.22,-923.17 725.59,-927.66"/>
</g>
</g>
</svg>
